<svg width="715" height="177" xmlns="http://www.w3.org/2000/svg" style="vector-effect: non-scaling-stroke;" stroke="null">
 <g>
  <rect fill="#fff" id="canvas_background" height="179" width="717" y="-1" x="-1"/>
 </g>
 <g>
  <path d="m0.75,67.75c0,1 0,2 1,6c1,4 3,8 5,12c3,6 5,12 7,19c2,7 5,14 8,21c3,7 5.5635,11.7025 8,17c1.32138,2.87296 2.14429,4.93414 3,7c1.21015,2.92157 2.75532,6.13202 5,10c1.80972,3.11847 5.76108,7.41589 9,9c2.84072,1.38934 5.9258,2.49756 11,3c4.97567,0.49268 9,0 14,0c4,0 8.96384,-1.11588 12,-2c3.95868,-1.15277 7,-2 11,-4c2,-1 5,-3 9,-7c3,-3 5.45049,-5.4505 8,-8c2.54951,-2.5495 3.72398,-7.22272 7,-11c2.77979,-3.20512 5.17049,-5.83868 8,-9c4.27039,-4.77115 7,-9 11,-13c4,-4 10,-11 13,-15c3,-4 5,-6 8,-10c3,-4 6.40215,-7.54358 11,-12c3.59033,-3.47987 8,-7 12,-11c3,-3 9.9183,-8.11214 14,-11c5.8867,-4.16493 11,-7 17,-10c6,-3 11.95798,-5.13081 18,-7c6.9549,-2.1516 13.81558,-3.99245 22,-5c8.93256,-1.09966 21,-1 29,-1c12,0 25.39218,-1.05075 40,5c8.26343,3.42282 18.35861,7.46744 26,13c6.3262,4.58032 11.73325,11.23274 17,17c2.86096,3.13286 5.48627,5.82375 6,8c0.22977,0.97325 1.83469,4.08554 5,10c3.80423,7.10829 7.19028,10.88152 9,14c1.12234,1.93399 2.31076,3.53493 4,5c2.38895,2.07193 6.87766,6.06601 8,8c1.80972,3.11848 4,6 6,9c2,3 5.22055,6.83128 9,12c4.25638,5.82092 8.64838,11.42654 13,17c3.58844,4.59598 6.88153,9.19028 10,11c1.93399,1.12234 5,3 9,4c4,1 8.01007,1.71643 12,2c7.05328,0.50125 11.93799,2.49829 18,3c7.97272,0.65985 15.95331,1.49902 24,2c5.9884,0.37283 12.06458,0.8009 17,0c6.24286,-1.01309 12.88733,-4.37668 19,-6c4.92822,-1.30875 9.88855,-3.19409 15,-6c3.92029,-2.15204 9.55804,-4.07764 15,-8c4.58905,-3.30762 7.83868,-6.1705 11,-9c4.77112,-4.27039 10,-8 15,-12c5,-4 7.7265,-7.29362 12,-11c3.77728,-3.27602 6.28418,-5.73116 11,-11c4.27039,-4.77115 7.31024,-8.71899 10,-12c2.28589,-2.78833 4.19031,-6.88152 6,-10c2.24469,-3.868 3.11584,-7.96384 4,-11c1.15277,-3.95868 1.75256,-6.01022 2,-9c0.50171,-6.06204 2.49622,-10.90779 3,-15c0.6109,-4.96254 1.84723,-10.04132 3,-14c0.88416,-3.03616 2.11212,-4.9183 5,-9c2.08246,-2.94336 6.57318,-7.37361 11,-12c7.34912,-7.68051 13.8313,-11.22054 19,-15c2.91046,-2.12819 6.04132,-2.84723 10,-4c3.03619,-0.88413 7,-1 9,-1c3,0 5,0 6,0c3,0 5,0 7,0c2,0 3,1 4,1c0,0 1,0 2,0l0,1l0,0" id="svg_1" fill-opacity="null" stroke-opacity="null" stroke-width="1.5" stroke="#000" fill="none"/>
 </g>
</svg>