<svg width="799.9999999999999" height="600" xmlns="http://www.w3.org/2000/svg">
 <!-- Created with Method Draw - http://github.com/duopixel/Method-Draw/ -->
 <g>
  <title>background</title>
  <rect fill="#fff" id="canvas_background" height="602" width="802" y="-1" x="-1"/>
 </g>
 <g>
  <title>Layer 1</title>
  <path d="m20.52038,324.6879c0,0 1.64024,-0.5466 5.26324,-3.15793c1.9095,-1.37631 4.6848,-2.5795 7.36854,-5.26324c2.68374,-2.68375 4.2106,-5.26324 6.31589,-7.36853c2.1053,-2.10532 4.21059,-4.2106 5.26324,-5.26324c1.05265,-1.05264 3.23807,-2.75513 4.21059,-3.15796c1.37535,-0.56967 2.13346,-1.86343 3.15794,-2.10529c2.29082,-0.5408 2.97242,-1.56448 5.26324,-2.10529c1.02449,-0.24185 5.29042,-0.71545 7.36853,-1.05267c3.28578,-0.5332 6.33955,-1.71945 9.47384,-2.10529c4.30766,-0.5303 7.4511,-0.83142 10.52647,-2.10529c2.17462,-0.90076 5.26324,-2.10532 8.42119,-2.10532c3.15794,0 5.16617,-0.52234 9.47383,-1.05264c2.08952,-0.25723 5.26324,0 7.36854,0c2.10529,0 3.15794,0 5.26324,0c2.1053,0 5.29043,0.71539 7.36854,1.05264c3.28579,0.53323 5.26324,2.10532 9.47383,4.2106c2.1053,1.05264 5.26324,3.15796 7.36853,4.2106c4.2106,2.10529 7.86572,4.70776 12.63179,9.47382c4.76607,4.76605 6.90346,8.96783 10.52647,11.57913c1.9095,1.37628 5.26324,2.10529 9.47383,2.10529c3.15794,0 13.7861,0.49081 20.00032,-1.05264c6.46121,-1.6048 13.71646,-2.95386 21.05295,-4.21057c5.29042,-0.90622 10.52649,-2.10532 15.78972,-3.15796c5.26324,-1.05264 10.45715,-3.30984 12.63179,-4.2106c6.15074,-2.54776 10.55876,-3.06561 13.68442,-4.21057c5.32281,-1.9498 11.57913,-3.15796 16.84238,-6.31589c5.26324,-3.15796 11.51401,-7.45126 16.84235,-11.57913c4.16077,-3.22336 8.28256,-5.56699 12.63181,-7.36853c3.07538,-1.27386 4.69354,-1.78262 5.26321,-3.15796c0.40283,-0.9725 1.05267,-2.10529 2.10532,-2.10529c3.15793,0 9.45752,-1.13766 14.73706,-2.10532c6.2981,-1.15436 10.39865,-1.57208 13.68442,-2.10529c4.15622,-0.67447 8.4212,0 11.57913,0c4.2106,0 8.4212,0 11.57913,0c3.15796,0 6.18805,0.51944 9.47385,1.05264c3.11716,0.50583 7.30923,0.19824 10.52646,1.05264c5.18765,1.37769 9.64151,0.64282 12.63177,2.10532c3.40945,1.66751 7.29926,3.30981 9.47385,4.21057c3.07538,1.27386 5.42349,2.35229 7.36853,3.15796c2.7507,1.13937 4.29315,2.93677 7.36853,4.2106c2.17465,0.90076 4.14127,3.30981 6.31589,4.21057c3.07541,1.2739 5.45905,1.78168 7.36856,3.15796c1.20767,0.87042 3.23807,1.70245 4.21057,2.10529c1.37534,0.56967 4.14127,3.30984 6.31589,4.2106c3.07538,1.27386 5.34583,1.88403 8.4212,3.15793c2.17462,0.90076 5.26321,1.05267 9.47382,1.05267c2.10529,0 5.26324,0 8.4212,0c3.15793,0 5.26321,0 8.42117,0c2.10529,0 5.19391,-0.15192 7.36853,-1.05267c3.07538,-1.2739 5.13541,-1.57208 8.42117,-2.10529c3.11719,-0.50586 6.31589,-1.05264 9.47385,-1.05264c3.15793,0 6.13037,-0.51184 8.42117,-1.05264c3.07349,-0.72556 4.6178,-2.01855 7.36853,-3.15796c0.97253,-0.40283 2.83527,-1.53561 4.21063,-2.10529c0.97247,-0.4028 2.31134,-0.68301 6.31586,-3.15796c4.47717,-2.76706 10.74933,-8.12021 13.68445,-10.52646c3.45374,-2.83139 6.5387,-4.96231 9.47382,-7.36856c2.30249,-1.8876 4.43341,-2.85696 7.36853,-5.26321c2.30249,-1.8876 4.40637,-1.78165 6.31592,-3.15796c1.20764,-0.87042 3.1579,-1.05264 5.26324,-1.05264c3.1579,0 6.33954,-0.38586 9.47382,0c4.30762,0.5303 8.46466,0.89182 12.63177,2.10529c3.19604,0.93066 7.24072,2.62476 10.52649,3.15796c2.07813,0.33722 5.29041,0.71542 7.36853,1.05264c3.28577,0.5332 5.26324,1.05264 7.36853,2.10529c2.10529,1.05264 3.31824,0.24695 5.26324,1.05264c1.37537,0.5697 3.32562,0.64285 6.31586,2.10532c3.40942,1.66751 5.26324,3.15793 8.4212,4.21057c3.15796,1.05267 5.45905,1.78171 7.36853,3.15796c1.2077,0.87045 2.10529,2.10529 2.10529,2.10529c1.05267,0 1.13281,0.64987 2.10529,1.05267c1.37537,0.56967 1.05267,1.05264 2.10535,2.10529c0,0 0.64978,1.13278 1.05261,2.10529c0.5697,1.37537 1.70245,2.18546 2.10529,3.15796c0.5697,1.37537 2.10541,2.10526 4.21063,4.21057c1.05261,1.05267 1.95026,3.34018 3.1579,4.2106c1.90955,1.37631 4.40643,1.78168 6.31592,3.15796c1.2077,0.87045 1.78259,1.53561 3.15796,2.10529c1.94501,0.80563 4.21057,0 6.31586,0c1.05267,0 3.15796,0 4.21063,0c2.10529,0 3.24048,-0.83139 6.31586,-2.10529c2.17462,-0.90076 4.02502,-1.56451 6.31592,-2.10532c2.04895,-0.48367 3.1579,0 5.26324,0c1.05261,0 1.05261,0 2.10529,0c1.05261,0 3.1579,-1.05264 5.26324,-2.10529c0,0 1.95026,-0.18222 3.1579,-1.05264c1.90955,-1.37631 4.21063,-2.10532 6.31592,-3.15796c2.10529,-1.05264 4.21057,-2.10529 6.31586,-4.21057c1.05267,-1.05267 2.8479,-2.46976 5.26324,-4.2106c1.90955,-1.37631 4.21063,-2.10532 5.26324,-3.15796c1.05267,-1.05267 2.10529,-2.10529 3.15796,-3.15793c1.05267,-1.05264 3.00293,-2.28754 4.21057,-3.15796c1.90955,-1.37631 3.08862,-2.25717 5.26324,-3.15793c3.07538,-1.27386 5.26324,-2.10529 6.31592,-3.15796c1.05261,-1.05264 2.10529,-1.05261 3.15796,-2.10529c1.05261,-1.05264 3.31818,-1.29959 5.26324,-2.10529c1.37537,-0.5697 2.10529,-2.10532 3.1579,-2.10532l0,-1.05264l1.05267,0" id="svg_2" stroke-width="1.5" stroke="#000" fill="none"/>
 </g>
</svg>