<svg width="370" height="53" xmlns="http://www.w3.org/2000/svg">
 <g>
  <path stroke="#000" d="m4.5,40.70197c0,0 0.4588,-1.19235 1,-2.1123c0.38268,-0.6505 0,-1.4082 0,-2.1123c0,-0.7041 0.61732,-1.4618 1,-2.1123c0.5412,-0.91995 0.69255,-1.53916 2,-2.8164c0.82691,-0.80779 1.61732,-1.4618 2,-2.1123c0.5412,-0.91995 1.69255,-1.53916 3,-2.8164c0.82691,-0.80779 2.41886,-0.99901 4,-2.1123c1.58114,-1.11328 2,-2.8164 4,-3.5205c2,-0.7041 2.69344,-2.43534 4,-2.8164c1.84776,-0.53889 3,-0.7041 4,-0.7041c1,0 2,0 4,0c1,0 4,0 6,0c3,0 5.15224,0.16521 7,0.7041c1.30656,0.38106 3,1.4082 4,2.1123c1,0.7041 2,2.1123 3,2.8164c1,0.7041 2.45881,1.19235 3,2.1123c0.76537,1.30101 1,2.1123 2,3.5205c1,1.4082 1.2565,2.67346 2,3.5205c1.66251,1.89402 1,3.5205 2,5.6328c1,2.1123 1.69255,3.65146 3,4.9287c0.8269,0.80779 3.0535,1.78876 5,2.1123c2.17625,0.36173 4,0.7041 7,0.7041c2,0 4.08025,0.4853 7,0c2.17625,-0.36173 5.186,-1.89582 7,-2.8164c2.29454,-1.16445 4.22273,-2.62206 8,-4.9287c2.13675,-1.30483 4.1731,-2.71271 5,-3.5205c1.30745,-1.27723 2,-2.1123 3,-3.5205c1,-1.4082 2,-2.1123 3,-3.5205c1,-1.4082 1.71412,-2.26134 4,-4.2246c0.8966,-0.77006 3.186,-1.89582 5,-2.8164c1.14727,-0.58222 3.21168,-1.91102 6,-3.5205c2.18735,-1.26258 4.59399,-2.47351 7,-3.5205c2.68999,-1.17057 5.00974,-1.26944 7,-1.4082c5.0742,-0.35377 8,-0.7041 11,-0.7041c3,0 6.21167,-0.20129 9,1.4082c2.18735,1.26258 4,3.5205 6,5.6328c2,2.1123 3.19028,3.43707 5,5.6328c1.12234,1.36172 2,2.8164 4,4.2246c1,0.7041 2,2.1123 3,2.8164c1,0.7041 2.0535,1.08466 4,1.4082c2.17625,0.36173 4.9258,1.75853 10,2.1123c2.9854,0.20814 7.90779,0.3494 12,0.7041c5.95505,0.51617 12,0 18,0c6,0 11.6689,-1.14079 15,-2.1123c4.71088,-1.37392 10.132,-2.64411 14,-4.2246c3.11848,-1.27423 6.4588,-2.60055 7,-3.5205c0.38269,-0.6505 1,-0.7041 3,-1.4082c2,-0.7041 4.70267,-2.49347 8,-3.5205c3.77063,-1.17445 6.86325,-2.21566 9,-3.5205c3.77728,-2.30664 6.21167,-2.61511 9,-4.2246c1.09366,-0.63129 2.87857,-1.75565 6,-2.1123c1.97418,-0.22557 3,0 6,0c2,0 4.12872,-0.61211 7,0c3.45084,0.73566 4,2.1123 7,4.2246c3,2.1123 5,3.5205 7,5.6328c2,2.1123 3.87766,3.56697 5,4.9287c1.80972,2.19572 3.70547,3.06015 6,4.2246c1.814,0.92057 5.03873,1.77395 8,2.1123c3.12143,0.35666 6,0.7041 11,0.7041c3,0 7,0 10,0l2,-1.4082l4,-0.7041" 
  id="whoSVG" fill-opacity="null" stroke-opacity="null" stroke-width="1.5" fill="none"/>
 </g>
</svg>